<mxfile host="app.diagrams.net" modified="2023-07-29T10:56:21.982Z" agent="Mozilla/5.0 (Macintosh; Intel Mac OS X 10_15_7) AppleWebKit/537.36 (KHTML, like Gecko) Chrome/115.0.0.0 Safari/537.36" etag="jfFNG6-gGNP3TDIpE85c" version="21.6.6" type="github">
  <diagram name="페이지-1" id="X0fjslGjgeaHiSL1BiLw">
    <mxGraphModel dx="1644" dy="951" grid="1" gridSize="10" guides="1" tooltips="1" connect="1" arrows="1" fold="1" page="1" pageScale="1" pageWidth="827" pageHeight="1169" math="0" shadow="0">
      <root>
        <mxCell id="0" />
        <mxCell id="1" parent="0" />
        <mxCell id="_zGZdX93g_uaQ-y0SSPH-18" style="edgeStyle=orthogonalEdgeStyle;rounded=0;orthogonalLoop=1;jettySize=auto;html=1;exitX=0;exitY=1;exitDx=0;exitDy=0;entryX=0.666;entryY=0.041;entryDx=0;entryDy=0;entryPerimeter=0;" edge="1" parent="1" source="_zGZdX93g_uaQ-y0SSPH-1" target="_zGZdX93g_uaQ-y0SSPH-16">
          <mxGeometry relative="1" as="geometry" />
        </mxCell>
        <mxCell id="_zGZdX93g_uaQ-y0SSPH-19" style="edgeStyle=orthogonalEdgeStyle;rounded=0;orthogonalLoop=1;jettySize=auto;html=1;exitX=1;exitY=1;exitDx=0;exitDy=0;entryX=0;entryY=0;entryDx=0;entryDy=0;" edge="1" parent="1" source="_zGZdX93g_uaQ-y0SSPH-1" target="_zGZdX93g_uaQ-y0SSPH-9">
          <mxGeometry relative="1" as="geometry" />
        </mxCell>
        <mxCell id="_zGZdX93g_uaQ-y0SSPH-1" value="Client Side Rendering" style="ellipse;whiteSpace=wrap;html=1;" vertex="1" parent="1">
          <mxGeometry x="110" y="160" width="80" height="80" as="geometry" />
        </mxCell>
        <mxCell id="_zGZdX93g_uaQ-y0SSPH-5" style="edgeStyle=orthogonalEdgeStyle;rounded=0;orthogonalLoop=1;jettySize=auto;html=1;exitX=0;exitY=1;exitDx=0;exitDy=0;entryX=0.5;entryY=0;entryDx=0;entryDy=0;" edge="1" parent="1" source="_zGZdX93g_uaQ-y0SSPH-2" target="_zGZdX93g_uaQ-y0SSPH-1">
          <mxGeometry relative="1" as="geometry" />
        </mxCell>
        <mxCell id="_zGZdX93g_uaQ-y0SSPH-6" style="edgeStyle=orthogonalEdgeStyle;rounded=0;orthogonalLoop=1;jettySize=auto;html=1;exitX=1;exitY=1;exitDx=0;exitDy=0;entryX=0.5;entryY=0;entryDx=0;entryDy=0;" edge="1" parent="1" source="_zGZdX93g_uaQ-y0SSPH-2" target="_zGZdX93g_uaQ-y0SSPH-3">
          <mxGeometry relative="1" as="geometry" />
        </mxCell>
        <mxCell id="_zGZdX93g_uaQ-y0SSPH-2" value="Rendering" style="ellipse;whiteSpace=wrap;html=1;" vertex="1" parent="1">
          <mxGeometry x="300" y="30" width="80" height="80" as="geometry" />
        </mxCell>
        <mxCell id="_zGZdX93g_uaQ-y0SSPH-22" style="edgeStyle=orthogonalEdgeStyle;rounded=0;orthogonalLoop=1;jettySize=auto;html=1;exitX=0;exitY=1;exitDx=0;exitDy=0;entryX=0.5;entryY=0;entryDx=0;entryDy=0;" edge="1" parent="1" source="_zGZdX93g_uaQ-y0SSPH-3" target="_zGZdX93g_uaQ-y0SSPH-21">
          <mxGeometry relative="1" as="geometry" />
        </mxCell>
        <mxCell id="_zGZdX93g_uaQ-y0SSPH-29" style="edgeStyle=orthogonalEdgeStyle;rounded=0;orthogonalLoop=1;jettySize=auto;html=1;exitX=1;exitY=1;exitDx=0;exitDy=0;" edge="1" parent="1" source="_zGZdX93g_uaQ-y0SSPH-3" target="_zGZdX93g_uaQ-y0SSPH-10">
          <mxGeometry relative="1" as="geometry" />
        </mxCell>
        <mxCell id="_zGZdX93g_uaQ-y0SSPH-3" value="Server Side Rendering" style="ellipse;whiteSpace=wrap;html=1;" vertex="1" parent="1">
          <mxGeometry x="520" y="160" width="80" height="80" as="geometry" />
        </mxCell>
        <mxCell id="_zGZdX93g_uaQ-y0SSPH-4" value="JSP, Thymleaf" style="ellipse;whiteSpace=wrap;html=1;" vertex="1" parent="1">
          <mxGeometry x="440" y="410" width="80" height="80" as="geometry" />
        </mxCell>
        <mxCell id="_zGZdX93g_uaQ-y0SSPH-8" value="&amp;nbsp;JavaScript" style="ellipse;whiteSpace=wrap;html=1;" vertex="1" parent="1">
          <mxGeometry y="410" width="80" height="80" as="geometry" />
        </mxCell>
        <mxCell id="_zGZdX93g_uaQ-y0SSPH-14" style="edgeStyle=orthogonalEdgeStyle;rounded=0;orthogonalLoop=1;jettySize=auto;html=1;exitX=1;exitY=1;exitDx=0;exitDy=0;entryX=0.5;entryY=0;entryDx=0;entryDy=0;" edge="1" parent="1" source="_zGZdX93g_uaQ-y0SSPH-9" target="_zGZdX93g_uaQ-y0SSPH-11">
          <mxGeometry relative="1" as="geometry" />
        </mxCell>
        <mxCell id="_zGZdX93g_uaQ-y0SSPH-24" style="edgeStyle=orthogonalEdgeStyle;rounded=0;orthogonalLoop=1;jettySize=auto;html=1;exitX=0;exitY=1;exitDx=0;exitDy=0;entryX=0.5;entryY=0;entryDx=0;entryDy=0;" edge="1" parent="1" source="_zGZdX93g_uaQ-y0SSPH-9" target="_zGZdX93g_uaQ-y0SSPH-15">
          <mxGeometry relative="1" as="geometry" />
        </mxCell>
        <mxCell id="_zGZdX93g_uaQ-y0SSPH-9" value="단점" style="ellipse;whiteSpace=wrap;html=1;" vertex="1" parent="1">
          <mxGeometry x="200" y="280" width="80" height="80" as="geometry" />
        </mxCell>
        <mxCell id="_zGZdX93g_uaQ-y0SSPH-26" style="edgeStyle=orthogonalEdgeStyle;rounded=0;orthogonalLoop=1;jettySize=auto;html=1;exitX=1;exitY=1;exitDx=0;exitDy=0;entryX=0.5;entryY=0;entryDx=0;entryDy=0;" edge="1" parent="1" source="_zGZdX93g_uaQ-y0SSPH-10" target="_zGZdX93g_uaQ-y0SSPH-25">
          <mxGeometry relative="1" as="geometry" />
        </mxCell>
        <mxCell id="_zGZdX93g_uaQ-y0SSPH-28" style="edgeStyle=orthogonalEdgeStyle;rounded=0;orthogonalLoop=1;jettySize=auto;html=1;exitX=0;exitY=1;exitDx=0;exitDy=0;entryX=0.5;entryY=0;entryDx=0;entryDy=0;" edge="1" parent="1" source="_zGZdX93g_uaQ-y0SSPH-10" target="_zGZdX93g_uaQ-y0SSPH-27">
          <mxGeometry relative="1" as="geometry" />
        </mxCell>
        <mxCell id="_zGZdX93g_uaQ-y0SSPH-10" value="단점" style="ellipse;whiteSpace=wrap;html=1;" vertex="1" parent="1">
          <mxGeometry x="600" y="280" width="80" height="80" as="geometry" />
        </mxCell>
        <mxCell id="_zGZdX93g_uaQ-y0SSPH-13" style="edgeStyle=orthogonalEdgeStyle;rounded=0;orthogonalLoop=1;jettySize=auto;html=1;entryX=0.5;entryY=0;entryDx=0;entryDy=0;" edge="1" parent="1" source="_zGZdX93g_uaQ-y0SSPH-11" target="_zGZdX93g_uaQ-y0SSPH-12">
          <mxGeometry relative="1" as="geometry" />
        </mxCell>
        <mxCell id="_zGZdX93g_uaQ-y0SSPH-11" value="SEO가 &lt;br&gt;좋지 않다" style="ellipse;whiteSpace=wrap;html=1;" vertex="1" parent="1">
          <mxGeometry x="240" y="400" width="80" height="80" as="geometry" />
        </mxCell>
        <mxCell id="_zGZdX93g_uaQ-y0SSPH-12" value="텅빈 HTML" style="ellipse;whiteSpace=wrap;html=1;" vertex="1" parent="1">
          <mxGeometry x="240" y="520" width="80" height="80" as="geometry" />
        </mxCell>
        <mxCell id="_zGZdX93g_uaQ-y0SSPH-15" value="첫 페이지 로딩이 오래걸림" style="ellipse;whiteSpace=wrap;html=1;" vertex="1" parent="1">
          <mxGeometry x="140" y="400" width="80" height="80" as="geometry" />
        </mxCell>
        <mxCell id="_zGZdX93g_uaQ-y0SSPH-20" style="edgeStyle=orthogonalEdgeStyle;rounded=0;orthogonalLoop=1;jettySize=auto;html=1;exitX=0;exitY=1;exitDx=0;exitDy=0;entryX=0.5;entryY=0;entryDx=0;entryDy=0;" edge="1" parent="1" source="_zGZdX93g_uaQ-y0SSPH-16" target="_zGZdX93g_uaQ-y0SSPH-8">
          <mxGeometry relative="1" as="geometry" />
        </mxCell>
        <mxCell id="_zGZdX93g_uaQ-y0SSPH-16" value="View" style="ellipse;whiteSpace=wrap;html=1;" vertex="1" parent="1">
          <mxGeometry x="40" y="280" width="80" height="80" as="geometry" />
        </mxCell>
        <mxCell id="_zGZdX93g_uaQ-y0SSPH-23" style="edgeStyle=orthogonalEdgeStyle;rounded=0;orthogonalLoop=1;jettySize=auto;html=1;exitX=0;exitY=1;exitDx=0;exitDy=0;entryX=0.5;entryY=0;entryDx=0;entryDy=0;" edge="1" parent="1" source="_zGZdX93g_uaQ-y0SSPH-21" target="_zGZdX93g_uaQ-y0SSPH-4">
          <mxGeometry relative="1" as="geometry" />
        </mxCell>
        <mxCell id="_zGZdX93g_uaQ-y0SSPH-21" value="View" style="ellipse;whiteSpace=wrap;html=1;" vertex="1" parent="1">
          <mxGeometry x="470" y="280" width="80" height="80" as="geometry" />
        </mxCell>
        <mxCell id="_zGZdX93g_uaQ-y0SSPH-25" value="서버 과부하" style="ellipse;whiteSpace=wrap;html=1;" vertex="1" parent="1">
          <mxGeometry x="720" y="400" width="80" height="80" as="geometry" />
        </mxCell>
        <mxCell id="_zGZdX93g_uaQ-y0SSPH-31" style="edgeStyle=orthogonalEdgeStyle;rounded=0;orthogonalLoop=1;jettySize=auto;html=1;exitX=0.5;exitY=1;exitDx=0;exitDy=0;entryX=0.5;entryY=0;entryDx=0;entryDy=0;" edge="1" parent="1" source="_zGZdX93g_uaQ-y0SSPH-27" target="_zGZdX93g_uaQ-y0SSPH-30">
          <mxGeometry relative="1" as="geometry" />
        </mxCell>
        <mxCell id="_zGZdX93g_uaQ-y0SSPH-27" value="Blinking&amp;nbsp;&lt;br&gt;Issue" style="ellipse;whiteSpace=wrap;html=1;" vertex="1" parent="1">
          <mxGeometry x="560" y="400" width="80" height="80" as="geometry" />
        </mxCell>
        <mxCell id="_zGZdX93g_uaQ-y0SSPH-30" value="새로고침시&amp;nbsp;&lt;br&gt;페이지 전부 받아옴" style="ellipse;whiteSpace=wrap;html=1;" vertex="1" parent="1">
          <mxGeometry x="560" y="520" width="80" height="80" as="geometry" />
        </mxCell>
      </root>
    </mxGraphModel>
  </diagram>
</mxfile>
